<mxfile host="app.diagrams.net" agent="Mozilla/5.0 (Windows NT 10.0; Win64; x64) AppleWebKit/537.36 (KHTML, like Gecko) Chrome/132.0.0.0 Safari/537.36" version="25.0.3">
  <diagram name="Pagina-1" id="VXjBiGOFRQAb3DXXXEjh">
    <mxGraphModel dx="2813" dy="2215" grid="1" gridSize="10" guides="1" tooltips="1" connect="1" arrows="1" fold="1" page="1" pageScale="1" pageWidth="827" pageHeight="1169" math="0" shadow="0">
      <root>
        <mxCell id="0" />
        <mxCell id="1" parent="0" />
        <mxCell id="olgELTn0P3DGFXb3GYX9-11" style="edgeStyle=orthogonalEdgeStyle;rounded=0;orthogonalLoop=1;jettySize=auto;html=1;" parent="1" source="olgELTn0P3DGFXb3GYX9-1" edge="1">
          <mxGeometry relative="1" as="geometry">
            <mxPoint x="510" y="190" as="targetPoint" />
          </mxGeometry>
        </mxCell>
        <mxCell id="olgELTn0P3DGFXb3GYX9-1" value="CLIENT&lt;div&gt;&lt;br&gt;&lt;/div&gt;" style="whiteSpace=wrap;html=1;aspect=fixed;" parent="1" vertex="1">
          <mxGeometry x="270" y="150" width="80" height="80" as="geometry" />
        </mxCell>
        <mxCell id="olgELTn0P3DGFXb3GYX9-9" style="edgeStyle=orthogonalEdgeStyle;rounded=0;orthogonalLoop=1;jettySize=auto;html=1;" parent="1" source="olgELTn0P3DGFXb3GYX9-3" edge="1">
          <mxGeometry relative="1" as="geometry">
            <mxPoint x="560" y="90" as="targetPoint" />
          </mxGeometry>
        </mxCell>
        <mxCell id="olgELTn0P3DGFXb3GYX9-13" style="edgeStyle=orthogonalEdgeStyle;rounded=0;orthogonalLoop=1;jettySize=auto;html=1;" parent="1" source="olgELTn0P3DGFXb3GYX9-3" target="olgELTn0P3DGFXb3GYX9-12" edge="1">
          <mxGeometry relative="1" as="geometry" />
        </mxCell>
        <mxCell id="olgELTn0P3DGFXb3GYX9-18" style="edgeStyle=orthogonalEdgeStyle;rounded=0;orthogonalLoop=1;jettySize=auto;html=1;entryX=0.5;entryY=0;entryDx=0;entryDy=0;" parent="1" source="olgELTn0P3DGFXb3GYX9-3" target="olgELTn0P3DGFXb3GYX9-17" edge="1">
          <mxGeometry relative="1" as="geometry" />
        </mxCell>
        <mxCell id="olgELTn0P3DGFXb3GYX9-3" value="SERVER" style="whiteSpace=wrap;html=1;aspect=fixed;" parent="1" vertex="1">
          <mxGeometry x="520" y="150" width="80" height="80" as="geometry" />
        </mxCell>
        <mxCell id="olgELTn0P3DGFXb3GYX9-5" style="edgeStyle=orthogonalEdgeStyle;rounded=0;orthogonalLoop=1;jettySize=auto;html=1;" parent="1" source="olgELTn0P3DGFXb3GYX9-4" edge="1">
          <mxGeometry relative="1" as="geometry">
            <mxPoint x="560" y="240" as="targetPoint" />
          </mxGeometry>
        </mxCell>
        <mxCell id="olgELTn0P3DGFXb3GYX9-20" style="edgeStyle=orthogonalEdgeStyle;rounded=0;orthogonalLoop=1;jettySize=auto;html=1;" parent="1" source="olgELTn0P3DGFXb3GYX9-4" edge="1">
          <mxGeometry relative="1" as="geometry">
            <mxPoint x="560" y="480" as="targetPoint" />
          </mxGeometry>
        </mxCell>
        <mxCell id="olgELTn0P3DGFXb3GYX9-4" value="STATE" style="whiteSpace=wrap;html=1;aspect=fixed;" parent="1" vertex="1">
          <mxGeometry x="520" y="310" width="80" height="80" as="geometry" />
        </mxCell>
        <mxCell id="olgELTn0P3DGFXb3GYX9-6" value="LLM&lt;div&gt;summarization&lt;/div&gt;" style="rounded=0;whiteSpace=wrap;html=1;" parent="1" vertex="1">
          <mxGeometry x="497.71" y="-110" width="120" height="60" as="geometry" />
        </mxCell>
        <mxCell id="olgELTn0P3DGFXb3GYX9-8" style="edgeStyle=orthogonalEdgeStyle;rounded=0;orthogonalLoop=1;jettySize=auto;html=1;exitX=0.5;exitY=0;exitDx=0;exitDy=0;" parent="1" source="olgELTn0P3DGFXb3GYX9-7" edge="1">
          <mxGeometry relative="1" as="geometry">
            <mxPoint x="540" y="40" as="targetPoint" />
          </mxGeometry>
        </mxCell>
        <mxCell id="olgELTn0P3DGFXb3GYX9-10" style="edgeStyle=orthogonalEdgeStyle;rounded=0;orthogonalLoop=1;jettySize=auto;html=1;" parent="1" source="5DhMMmUm6beUp1lfvrvs-2" edge="1">
          <mxGeometry relative="1" as="geometry">
            <mxPoint x="560" y="-40" as="targetPoint" />
          </mxGeometry>
        </mxCell>
        <mxCell id="olgELTn0P3DGFXb3GYX9-7" value="" style="shape=image;verticalLabelPosition=bottom;labelBackgroundColor=default;verticalAlign=top;aspect=fixed;imageAspect=0;image=data:image/png,iVBORw0KGgoAAAANSUhEUgAAASsAAACoCAMAAACPKThEAAAAk1BMVEX////yZyK5ubnxXAC1tbXyZBvyYAj60cPxWQDyZh/0glHn5+fxVwDGxsb0gEz+9vHx8fHzcTH4tp3959/1il7zbS7/+fX6y7r71sf2l3HLy8vp6en6ybfyYRHS0tL5w7D5vqje3t71kmvzeEH95dz839P2nnz1iFn3qYz2m3f3pYbzdDnwSgD0e0X4rpL+8On4sZiYNI4qAAALs0lEQVR4nO2di3aqOhCGxZgILVZbrbW2Ubxrbavv/3SbCQKTC4hapXTnX2edVYEE8pmZTCbBXatZWVlZWVlZWVlZWVlZWVlZWVlZWVlZWVlZWVlZWVlZWVlZWVlZWZWiNlLmNbtU59yjj3VuBcfqP3r/c26MtSS+m8hnT6Zrxh6+xp9mIs3U1kcizt26edqDNz99/zPnW/oKq53mlH+F+34uTrqnphlzsDzXcMe170kXcXoyrAcq3YVyQjbdE8o3ieO4OaxW1OGvOeWXPLwtmZ9wR13fxFHkv6jXzH31Gp73FRols4oqcdfFy/8GVo6nNoH21Gs+uNZOcqrpC1YMTJiEYlzcltwVLv8bWDENg/eoXtPT+4R7iv2AgBUZw8jQnS+awcYhQIsV7p+XstowSqmv+Kvd7CRfciYrcharATrwzqBWd1yw/KWs1rOvr6+t3K/2xD/JPG7KqomP7MD8Padg+UtZ6eo+EqcqrGoLFzpWM6OAop9n9R7evjKsoH0O/yhW/udZvZAqsQrCm9OCQ+H/zmoQWoH3XKz8/85qEca4nles/H/PyjXdzaz/nRW0n67kY/Px+nU6XT6pU+uUVTdYTqcf78r5lNXg+3W62efPkiHl8A41tk9JQJTJas+VcbD/7bmMc0o5C6fWUi+KWXVXPoMLCJEH0JjVmLphBZy5j8rNPMb8/eHvJ58xJiZunAn5QZE2lMlqC8fQTP2FMTQ75VLodWD17ifPwhwM88Cq58Y1UH8p3eyZOkm+KVBbzYIibSiRFTTfY2n3DyDz43E/nF37AM3D0zfBqj0IRwPuE9eFJ6IUwYpY9ZhDiR8Vd4gE69lDrEg4ORSNopFIUKQNJc5xINfAvpPPMCo6lO8XoQ/pBl54PUVPAqxIWMQj626/v1hBKonO0vPAahmG4nz70u7vAq5NNjGr91Wv14MnoqtId1oeyqTSWC2oQmMGn7fxxL8dtg1PgMQ48M09epj+irwb6g4hK7qceewwFrbBvj2OfDZmldTon9SGkvIM81fIyXCeWtHclauFgAJFAc0oJ+kmmYIpBxjJeZgvOV46qu6gOrZPzuusRMzwe3My41232100g+WzH7aUuiv0vQdESTN+UZyFiFih1rZFx0psJ2LF0rY/MYll1ViJvKjvi6xo6MO/JPf1EY71boAOrEOcbvJJsJIyOJCtpUmuULDiqfer9aFlbtqTq8YK3eQ5UIPwvvgv1ViKqwUrzCKK+mn8SbCSAvspZDHSjH51WTnedn/kOeW2CFaulNf0wPvHYQWwog/4NMTl6EjVWDFYlwijI0gfe4wYlyIz2iKCMXmevRIuEH2QWXShBE06ZsVYkRdY2d7tFsGDCK/dZV4JnRWVJ8fg0BIjA1auNAnsUw9Csvhj1VilnnbwDHXmTsMGGitlTVykCmPnLljJU+AtsErwVZdVrQ3exiOmS9vz5jgIAvDNMivDHClJq66ots5xJ003K8xKJEVTd5MeXj6KxVYmlsRkVr68ZAUDYTLNgbhdcu3RQJjeoMqsopFLXuPu77nL8UK4wkoOMyDS97ZpbeqC+SvHCYRKsxIjG8VHxlzkBygjELIyjZWSF12orJS86B9i1RaBNTKrDQyOYSixehp0d+3+mB1hNVBtUGHV+zs2GPne1GEtRZqFJyGq3JaBzuoFp6ANNiinNqrNSqSQkxAL0ngOn6U45H4FnUjx7RAzJJmInu7bH/9KzFCLugr9ij99ifQVOg1z47Qt4JyUmAG2CfE46xI6J2WpUdj4X4hFRWNE1HCIH0W+ieDA+0uKr3Z6LLrFNgZk5VgUvgqE7zqstNXNOwOrU3deGliJfXLxvERpWTidA3hpW/pSBga0I7jfgMXK9a/lEldhpS1Z9rm290/9io/LxGqDBnUpCAeJjXioLaIC3HEgmZcarUijSstg8E2goeM6rNT127XhGjSBLyYTK+ychfNCaw2iW+G2QDeRwnxgkba+L/KH6DSgwOvKRlbuSZsiDRwcIu15fdJ234Low2mwTKzwfoYddl61yBlJrETkiWZ830xmISJPlAuE+SbfpJ81VgPdAx6RiZXDtkHzoGBmRAXR9folVwPJlE2sagThgBE+ybDsttyR54NRDTxZe3iHEIOgtQexWdpN8+9iLy16BI3VTmTETvnGjaxgmnEQ0/16bIac5MqV0lNGVvig6CdR49t7Qh22oTIrsX7IH4TVtD9E4IpDDNGxHHcvGr/Yig8BOq2xgiOh2Uf1FfJbZlY/I4ICaSOrDxQh9cVckDm96ReBMW06V33vN5gpJY+96YPYjEC51HP7oicy/jDtPRL4k2zwaZ2V8MOUbHvTO3WD8u1Z4dcKjKykWcpAvJzhicVz2Iyw0MaptU+TK0Iqz8p43d6KxoSnxQzclzeH6Kxqjtj+AfW55bNCI+rMJ+RT3Ufb/QxNNcn3DSiJWsn9WUh1EZ78lG1j8OhyGhFlrmGj6dpl4nToH9xn5WbcJf5ePtR+8KNwyPsF/QoFTIvmYNDU9pqFBwdop1Vwx12Xz9biydtQQi0wWG55iNdbPRk9TDvoObD28bjRS4a1aZONweYxvCOhz4Vih1uxKqoC28aObS078dW34q/K/TZWv1mWVXFZVsVlWRWXZVVcllVxWVbFVQ1Wnclo2GoNR/edH6rwLN2KVatRD9VoZD7IRFxQb9xrZzqjsFw9Otto6edvppuxqmehOHbB6MDpoEa9tL51Y1b1VtaDNMysOvUYVSP5Y3I1Gvm6NassI5yYWXUOlllvjSaTUatRKqwLWFGGxE35UxOrDCPMOK/0pM7B7ZXjtM5m5ZFeME71ZMrLK6xaOUbYOJyXMYgSDVwk6n/ZQ8Q1dS4rj6vpscA9xmo4ymzmfQN6T0Nhdd/Q6Uawhj/U/JN0LitD1nWv1aX2qzcVhnS63lFPRxaoXDoUHauMwfBMVvqPztSiJblcVpGlmR4DToxUVqJb6Y5cdKzR5U0/WWeyMr6cOFX9u8ZqmGGEwgQ7KquWqVuFAVdZHutMVuTdUNer+ntGGqv7DCMUVGoqK3O3iuKIMobC27KqZYyEwgRVVsKLmxxTvSTvfmNWZiOMTFBlNcwKMUZm27y6bszKbISRCaqs6lk+/D6rw11ZN2ZlHgkjE1RZZbqlyGG9/UDrT9OtWZmM8GCCCqu37N5T0qTw1qxMRngwQYVV5NqND51pndfVrVkJy1LGsIMJmliZPXirnIHw5qx0I4xNUGGVM9rlTcKvqJuz0o0wNkGF1TCbVc6pa+pcVqbfbzw+xwFpfSI2QYVVTuepFituev12e3TuDFKNMDHB4qxKCkbPzckQff/Ti5btM7JSjTAxwT/Lis7UXUtzpr0yYGSljoSJCf5ZVg71nuboN90XH0R/u8LMSjbC1AT/LivHYy7+SXb996WzWN3rSKI/TxsHKxMzFJOZlWyEqQkWj6/+I1bYCJEJFo/bh5WK2y9ihY0QmaDCKifz0qrUfPAiVjXULZAJKqxyMi/VyjNcxio1QmyCplyfmUi9Uvmry1ilRohNUGWVGTR0srM1V1UprNKREJugyipzIMzx+ldVOaxiI5xgE1RZZTqskobBkljFRiiZoLY+WM9gUrH1wQtZxUYomaDGKiOLnJNcvq5KYhUZoTQK6qxq5i0xWd3t6iqJlaD0NpR9tMZqZLK2UUmrg6WxirKjSvitsYq6kMwlssBK7b+6lFWURZBB6KzetC2Ph13J18KRq7JY3ce7itExndUBTaMVRQ6dyWFXcjnbtg2/f/JzQv+cnMoq3qONZ8AGVnE/Ovz/UGgyGcF7FLcOHDamHN1PKf1pCZ3VUPdFJlbJZm5JGZvhr6ydcbP1z4ih13E0Vve64zGyivdpm3TrgHQHvwZwFUn/Jmer0WjI8+AGSEpCdeCIofnihRyjbh68z5tXkfx7Mm+hZI8MR5TJ3r12UaLOm0HlvvZlZWVlZWVlZWVlZWVlZWVlZWVlZWVlZWVlZWVlZWVlZWVlZWVlZXWZ/gHzZ/mFyTrhYAAAAABJRU5ErkJggg==;" parent="1" vertex="1">
          <mxGeometry x="497.71000000000004" y="10" width="124.58" height="70" as="geometry" />
        </mxCell>
        <mxCell id="olgELTn0P3DGFXb3GYX9-12" value="TEXT EXTRACTOR" style="rounded=0;whiteSpace=wrap;html=1;" parent="1" vertex="1">
          <mxGeometry x="700" y="80" width="120" height="60" as="geometry" />
        </mxCell>
        <mxCell id="olgELTn0P3DGFXb3GYX9-15" value="" style="edgeStyle=orthogonalEdgeStyle;rounded=0;orthogonalLoop=1;jettySize=auto;html=1;" parent="1" source="olgELTn0P3DGFXb3GYX9-14" target="olgELTn0P3DGFXb3GYX9-1" edge="1">
          <mxGeometry relative="1" as="geometry" />
        </mxCell>
        <mxCell id="olgELTn0P3DGFXb3GYX9-14" value="" style="shape=image;verticalLabelPosition=bottom;labelBackgroundColor=default;verticalAlign=top;aspect=fixed;imageAspect=0;image=data:image/png,iVBORw0KGgoAAAANSUhEUgAAANMAAADvCAMAAABfYRE9AAAAsVBMVEX////tHCQAAADsAADR0dH72tpRUVHz8/O2trZ6enrtGCHsABD1nJ7uKDDuLTPtFB360dLvTFH85ebxZGj5wMHybXD1HSVcCw6sGB7tCxf2oaP++PjtFB7zen3zhIf5yMnDw8P97OzwVVmzs7OoqKj0kZPydHf0i433srT2p6nq6uqzfn+rAADxAAC8GR9TCQyYamtNCQzuNjzxXmLvQUb4ubvwWFzxZ2uyvr5wgH8mJibdgfLpAAAFt0lEQVR4nO3c2WLiNhQGYDsqnSliD0nrBMNACiHTfTJk2r7/g9UEsCX5eNdyRM9/a2v5wMiS5SQIKBQKhUKhUPTn6cZOPlk0fbRksomyZrKIsmeyh7JosoayabKFsmqyhLJrsoOybLKCsm2ygcpMPwQfTOSzfZRoMpIP9r8pBybjKBcm0ygnJsMoNyazKEemm49mWnuPK5NJlDOTQZQ7kzmUQ5MxlEuTKZRTkyGUW5MZlGOTEZRrkwmUc5MBlHuTfhQCk3YUBtPNk94mUZg0o3CY9KKQmLSisJh0otCYNKLwmPShEJm0oTCZdKFQmTShcJn0oJCZtKCwmW5+7t4kOpMGFD5TdxRCU2cURlNXFEpTRxROUzcUUlMnFFZTFxRaUwcUXlN7FGLTTdsmydQiZCJTQcjUJk1f+PPB1DRkgkImGyETFDLZCJmgkMlGyASFTDZCJihkshEyQfkFsWnSroLlr4hNrBVq+dtPiE39Nqglu8dsCluglizEbWqOSkjYTU1RRxJ6UzPUOwm/qQnqRPLAVB91Jvlgqou6kLww1UOlJD9MdVAZyRNTNUog+WKqQokkb0zlKInkj6kMFUskj0zFKPlbSk78/Y8fz/mzhyNph/4K66HCvnri/SURw5G0Q/dKV0M+AE1D1eRTyORHyORHyORHyORHyORHyORHyORHyHRKH0yD8+t1DW6mRj1tTCMoIT8uPiOgXH8onTgMx+eVKufQ6WkxsBmppoLSzU3jKVgiyWPvsBwxrhZlPejcdW+1334Lk4+hoB22LmrnkhmDS+o0nRracq50ruwx4nq+YwxsjM2qTD1bpiQDtqhtOmY/glS4TMH6i3hB1dhtOET5KxCZKQg2wvVXa1voLtc/dKZgOm5mCvZqB/GZHrPhr+ae5ETpIT5TcEgbrLvPqqDcmR7PKami9ob4QeqjO9Pm8vj6y7PSh5fLMCGZZrd3SeLlwxy4pS7FO5tkmrwXU/I6hvrX3XR7GYQXnMlVrS+fomTqseg9yUxquM2xRkKzkml+LialgKTPdOzFC1iHYkpP73MWK9es+JNSTIX9MWsKmdTFu6jcdGydK3PBjXALQGLai4e2vNKU2/8SvigkpmgpHnqoYUpQ8o8qaxiLKRYPvdQxqbe7QTr0YTE1/56Sw6sAPI7ExKWBr87v6VjfRmoZNh2ADd2ixaTmMUL6beyqx73TcWm0TCe/kmmd33efPRehtN6fpJ9T8HVR0zQXSy0vFVbOjR54rirdpgV7lap4LJhH5LuwBXvqzvSWXt5fD3IVh7qm6A4u5sw0WZ3Sy83Msx9GhUkeJObuTYWZwOsnwLSQKlwhNo3SZ0dXY4qzBiuvvTexIN5rbysuGqrGiJ1Yco/VtBN7XjmWS12Ax/L1PJdVbOqeC2UylD7BynuuNOGLwXvu3ObcKJ/VRnlS3HBudBlb3M1h5cwOMWfqY4IKU3QrVYFgXj6Iz9ndbUbwBlTVWkNa6U4QmF6zBzrjgjLlpkieJW6xrQlbmPpcnlSF2NbuzU0L5S60yg77auJD5bHlFN2zsGamMWdbpdmVOP3wxjQ5jSmcMzZ9ya1PxNfa/THN4mWS58F+AmyF7Ar3AFCbyiJvFV6FaSX3+xpMarevwDQo3aP20fT4Vv4ugYemB2Ax5LVpPYigVbi/ptnLJv8mmWPTt6KNYqFzwLtux1fdDoN4yhgvqkDaUFiZNYX9ZGZzSdlLhWkioQDnPH2gwKNFaTGhmepPrpsJfcjkR8jkR8jkR8jkR/5HpnFuYyT9w4/cIUfJ/hQldwg25fJ3+h8o/qlXwHiy/4nRtoZr/N+PZLIRMkEhk42QCQqZbIRMUMhkI2SCQiYbIRMUMtkImaCQyUbIBIVMNkImKGSyETJBIZONkAkKmWyETFCu2/Tv9zii04QvZCKTq5CJTK5CpixPrjtekramz9/hTVsThUKhUCgUffkPDIzZxJibmOEAAAAASUVORK5CYII=;" parent="1" vertex="1">
          <mxGeometry x="270" y="301" width="78.57" height="89" as="geometry" />
        </mxCell>
        <mxCell id="olgELTn0P3DGFXb3GYX9-16" value="INGEST" style="text;html=1;align=center;verticalAlign=middle;resizable=0;points=[];autosize=1;strokeColor=none;fillColor=none;" parent="1" vertex="1">
          <mxGeometry x="278.57" y="250" width="70" height="30" as="geometry" />
        </mxCell>
        <mxCell id="olgELTn0P3DGFXb3GYX9-17" value="KEYWORD&amp;nbsp;&lt;div&gt;EXTRACTOR&lt;/div&gt;" style="rounded=0;whiteSpace=wrap;html=1;" parent="1" vertex="1">
          <mxGeometry x="700" y="250" width="120" height="60" as="geometry" />
        </mxCell>
        <mxCell id="olgELTn0P3DGFXb3GYX9-19" value="" style="shape=image;verticalLabelPosition=bottom;labelBackgroundColor=default;verticalAlign=top;aspect=fixed;imageAspect=0;image=data:image/jpeg,/9j/4AAQSkZJRgABAQAAAQABAAD/2wCEAAkGBxIQEhUTEhMVFRUVFRgXFxUVGBUYFRUYFhgWFxUXFxUYHSggGBolGxUXITEhJSkrLi4uFx8zODMtNygtLisBCgoKDg0OGxAQGy0lICUrKy0tLS0tLy0tLy8tLy8tNS0rLS01LS0tNS0tLS0uLy0tLS0tLTUtLSs1LS0tLS0tLf/AABEIAOEA4QMBIgACEQEDEQH/xAAbAAABBQEBAAAAAAAAAAAAAAACAAEDBAYHBf/EAEoQAAEDAgMFBgMFBAUKBwEAAAEAAgMRIQQSMQUTQVFxBhQiMmGBB5GxI0KhwfBicrLRUoKSwvEVJTNDY3ODorTSNURkdKOz4Rb/xAAZAQEAAwEBAAAAAAAAAAAAAAAAAQIFAwT/xAAjEQEBAAICAQMFAQAAAAAAAAAAAQIRAxIhBDFRIjNBQmGB/9oADAMBAAIRAxEAPwDuKpS6lLeHmrDGAgEhAsNp7oMVw900xymgsng8Va3QBh/MrMmh6FRzNAFRZRMeSQCUEavBDuhyCrGQ80Cm8xU2F09/5J42AgEhRzHKaC1kBYrgo8P5kcHirW6KVoAqLFBJJoeioudQEnQAk9BcqRrySL8V4Pa7bTI2uhjoZHCjiPuNOtf2iOHrXlWmecwx3Vc85hN1p4nhzQRcEAg+h0VafzH9cFmOw+1y+MwOd4ovL6x1t/ZNuhatdE0EVIqU485njMojDOZ4zKGwuh6psVoOqGY5TayUJza3V1wQeYfrgrb9Co5WgCosVA2Q80AK6zQdE26HIKs6Q11QPP5ipMLoUUTQRU3KCbw6WQFitPdQw+YI4TmN7qSRgAqBQoJCqKMSHmrO6HIIKaSubocgkgHu49VG6UtsOCfvPp+KW5zXrqgdjc9ymf4NOPNLPktrxS8/pT80DMeXWKMwgX5XQ5Ml9Ut9W1NbIB7wfRS7geqDu3r+CXePRAzpC2w4ImNz3PSybdZr1pVLNktrx/XyQJ4yaceaZry6xT1z+lF5faDaYwceaoL3VDG8zzPoP/zioyymM3UZZTGbqj2p24MP9lFeUi54Rg6dXHhy164Umtzck1JOpJ1JPNC6VznFziS5xJJOpJ4olk8vLeS7rK5eW8l2qwYp8Mu8jOVzXGh/IjiDyXUOz+324qOraNc3zs1LSeIPFp4Fcpn8x6qbZuOfh5BJGaOHDg4cWu9CnBz3jv8ADg57x3+OzsGe5/BJ4yXHHmqOxtqsnibJHo7UHVrhYtP6vYq7XPbSi1pZZuNWWWbhmyFxodCjMIF0O7y3rWn+CW/ramqlIe8H0UghBvzQ929fwS39LU0sgZ0hbYaImDPrw5Jt3nvWlUq5La1QO9uS46XQtkLrHinzZ7acUt1lvWtEBbgeqj7wfRF3j0S7t6/ggHvB9EkXdvX8EkAbhylbKAKHgpN4OY+arSNJJoEBPbmNQnj8GvFFCaC9uqGe9KX6IHe8OFBqgERFzwulCKGpt1Uz3gg3GiBt+1RbgoN2eRVoPHMIAbIGih1CB7c9x0QyNJJIClgNBe1+KAGnd1LjQU15U1JXLdu7UOKndJ93ysHJo0+evutd2/2pkibE0jNLWv7g1+ZoOlVz4FZ/rOXd6Rn+r5fPSJFKFEpGFeJ5Ioz+Y9UCOfzHqgUK17fZPbPdZaOP2UhDX/snRr/bj6V9F1SMZbniuILpXYnapxGH3bjV8NGnmWGuQ/gR7eq9/o+X9L/j3ej5f0v+NO+QOFBqVGISLpomkEE2VhzxTUL3veHftURhJvzQZDyKtNeKahADHhoodUMgz6cEMrSTUXRwWrW3VA0bclz0ROkDhQalNOai178FHE0ggkUQOICpd+1EXjmFV3Z5FBY37UlX3Z5FJAKuRaDoioqkupQFidfZFhePt+aPD6e6DFcEB4nyqvHqOqPD6qeTQ9EBqgUqq8AgGHyhQYnX2/mhm1Kr7Txm4w0svFrSR+9SjfxIUW6m0W6m3OO1OO32JeR5WfZt6N1Pu4uK8xRNCkaViZZXK21iZZdrbUjUbDdRsRKBWxHmKjUmIPiP64KLMFCDr2eyO0u74pjiaNed2/lRxsfZ1D814mdMXq2OVxssThlccpY7tP5T+uKqt1HVU+zeN38MMhNS5ni/eaC134gr2HCxW3Lubjbl3NwSov1PVNVXWCw6KUhw/lH64qLFahDP5ipMNoUAYXX2U83lKDE6e6hh8wQAFfTEKjVBfSVCqdAW9dzU7GAgEhN3ceqAylthSyBSuymgsnh8Va3onazPc/gmf4NOPP0QFK0NFRYqJshJAJRNfnsfwRmEC97XQHum8lWMp5ou8H0Undx6oHjYCKnVZn4hTZMNlFs72CnSrj/AFojKW2HBYz4kTVZCP2nmnQAf3iuPqLrjrjz3XHWIajYowiCx2OkBUijRtKJiliPMfb8lGpcT5j7fRRKUkkkkg6H8NcVWCWPjG8OHoJBT6tK1okPNc++Gb/t5GV80df7Lh/Mro5gAvey1vTXfHGr6a744PdN5Ku6Qg6p+8H0UggBve67u5RMBFTcoZjl0smdIW2HDmnaM+vDkgaE5jQ3UkjABUaoXNyXHS6FspdY8UACU81Z3TeSDcD1UfeD6IJ903kkoO8H0SQH3n0TbnNeuqDcOUrZABQ6hAIfktqkfH6U/NNI3MahPH4NeKBBmS+qffVtTWyUjw4UGqBsRBqeCAu7eqfvHoj37VBuXID3Wa9dVhPiSzK+AfsyfVi3rJA0UOoWJ+JYruHDm9v8ACfyXn9V9quHqftVhkYQImrJZCRqNijYiBRKtifMfZRKXE+Y+30USlJJJJINR8OX0xZ/3Tv4mLpu/ramq5p8OYicS+nCI/i5q6OISFqek+20/SfbH3b1T7+lqaI9+1QmIm69L0iMea+lUgcltaomPDRQ6oZBn0QIuz204pCLLfklGMtyifIHCg1KBu8eibu3qgEJU+/agj7t6pKTftTIDzjmFVkaSTYoFci0HRAEBoL26ocRelL9EOJ19kWF4+35oBhFDe3VTvcCDcaIcT5VXj1HVA2Q8j8lcDxzCJUCgklaSTQLOdvMNmwmbjHI13rQgsPt4vwWrh8oVHbGFEzHxHR7C3pWtD7Gh9lTkx7Y2KcmPbGxxtOEnNINHChBoRyIsR80yxGIMKRRhGNEFbEeZRo5z4io6qVjpJqpIN18L4PFNIdPCwH+0Xf3fmugOeKahZzsVgt1gWE6yfaH+sRl/5Q1ew3UdVr8GPXjka/Bj145CyHkfkrbXiguEaov1PVdnUcwqbXUmHtWtuqPD+UfriosVqEBzmote/BRRNIIqEWF19lNN5SgcvHMKnkPI/JMFfQUch5H5J1dSQNlCqSG5S3zuf0U7IwRUi5QNh7j3Q4m1KJpXFpoLBPF4q5r0QDAbqeQWPRBI0NFRYqJshJoTqgDMeaugBBuW8vqoN87n9EDSm5U2HuPdOyMEVOqjlOU0FkHOO3uzNziN4B4JvF6B4oHj6H3KzS63tzZnfIHxmmYeKMng8Vp7G4PoVyeSMtJa4EOaSCDqCLEFZXquLpnv8Vleq4uue/xTNRtUYRBeZ5lefzFAilNz1QqViVzY+AOImZEPvOueTRdx+QKpronw32NlY7EPF5BRg5MBuf6xHyb6rrw8ffOR14ePvnI1mGaAWtFmgUA4AAUAVtwsVHIwNFRqohKTx+i2GuDMeauMFh0Q7lvL6qAykWqgU5uVJhrg1TxsDhU6oZTl0sgLEWHuooTcIojmNDdG9gAqNUEhCp5jzRiV3P6Kfct5fVBVzHmkrW5by+qSAe7jmUBlLbckXeByKExZr80BNZnuUzvBpx5+icPyWN0zvHpan5oE1+exTmEC/K6YMyXKczA2prZAPeDyCPu45lB3c80XeByKATKW25Imtz3PSyYxZr80muyWN+KBOGTTjzWL7b7D3lcTE3xAfaNH3gB5x6ga+nRbRxz6WomEeW5uqcnHM8etU5OOZ49a4miWp7Xdm92TPAPszd7BrH6jmz6dNMvEKkDmQsfPjywy61j58eWGXWocWzK9w5EqJXdsx0lJ4OAP5H8Qpuz+xJMZJkZZou95FmD8zyCm4Xt1i+WF73GfKx2T2A7GS0NREy8jv7gPM/gF1nIIwMotSgHAAaAKDZuDjwkYiY2jR8yeJJ4kqw457C1FqcHDOPH+tLh4px4/0wkzWPH/ABRbgC9TZMI8t+X+Cffg2pquzsHvB5BEIAb3uh7ueYRCcC1NEDGTLYcEmjPrw5JGPNfmk05Nb1QO5uS46XQiXNY8UTnZ7C3FMIst+SAu7jmUHeDyCLvA5Ie7nmgXeDyCSXdzzSQBuXcvop2SACh1CkzDmqkguUByNLjUXCeLw+a1f1wRYc0F0OJvSl0BSODhQXKibGQakaJ4BQ3U8jhQ9EDb5vP6qDcu5fRBlPIq4HDmgjZIAKHUIJRmNRdBKLlTYc0F+aAYvD5rV/XBFI8OFBqmxF6Uuo4BQ3QIRHiLcdNOKx3aLszHG/fwWaD4owLAmwLOQqRbgty9woei83Gwl0bxTVp+dKj8VTPCZTyrlhjlrbIQ7AbjC1hJGW+ZtK0FM2vNbXZmEiw0YjjaGAcBck8yeJ9V53ZdgGY+g+p/l+K9WYVJUYYSfV+U9Z27a8ilGa4uniGXzWT4ewva6WIuBS66JPI8OFBqohERw+iUIoQrLnCmqAd83n9VAYib0+iDKeRVtjhQXQBG8NFDqhlGby3QTCpKkw9ga2QDEMpqbI3yBwoNUsQai3NRRC4QIQu5fRT75vP6oi4c1TynkUFrfN5/VJVcp5FJAyuRaDonyDkFVkcam6AsTr7IsLx9vzRQCovdDiLUpbogPEeVV49R1RwGpvdTvaKG3BAaoFPmPMq4GjkEDQ+UKDE6+3800pIJUuHFRe9+KAcLxUmI8qDEWpS3RBCam6CNmo6hXXCoIQvaKG3BVMx5lBQ2SyjT7fgvZg8oTtYOQVeY0Jook0CxWo6JYXU9EWHuL3vxSxFgKW6KQc/lP64qq3UdUcJqRVUsb2iwkL3RvlaHt1FHGlRUaDkQotk90ybewqL9T1XkO7U4Qf8AmB8pP+1WIu1WBNPtm9SHAe5IUdp8nW/D2cP5R+uKixWoULMS2QZo3hzToWEFvzCN+JZGx0kjgGtuXHgFZA8Lr7KafyleFJ2rwRHhmHs1/wCTVHH2qwdbzj5Sf9qr2nynrfh6oV9U8FjoZwTE9jwNcpBI6jUe6HMeZVkLySo5jzKdAW+dz+imZGCKnUoH4axoaGhoSKgHgSOK4/2s2ptXC4yGCTFbwOkicxsIEDZRvQ0RupUtzEZTUkUPFRbpbHHbr8hLTRqeLxea9Fhtt9ltqY1pe7aO6dctggEscQ5NMrXhzz+0RT0Wf7D9ptpzCTBMcwysr9viCXOhax2R7XNF5XBxAFTa9a0UdvJ18b263IwNFRqo2ykmh4rknavYW1ME04wbSmmykF9DJHkBNARFncxzKkVFBrWi6B2J2ucdg48Q4APu14HlzsNCRyBoDThVJl50XHU20O4by+qg3rlku3HbKTDPiwmFa12KnLQ0uu2MPcGMJHEkk+gAJPIhi+wE0rMztqY3f0rmbIWwh1PuwsIyt9AfdN/B1+W1ZGCKnUoJDlNBZcw7I9r8Zhcb/k/HuMnj3bZHXc13+rJf99j/AA0J8QzCvGml7eHaAhfPhJ442RRl0jDGDIctXOc2R1R5fu5Rob3s7eNnXzpq4vF5ropGBoqNVyLsNi9qY2KdseJyAyjPiZS6SRvgb9lDHWjf6RNhe115238LtLY0scwxkk7XmmZz5SxzhcxyxPe7UVvU6G4Kjv43pPTzrbtLZSbE6qfcN5fVUdkYluIgixDbCSNsgB4ZgHUJ9NFhtn7bn21iZ2RzSYbCQUH2BDJpi4vDDvblgOQuoKGlBxVrVZHQDK4KVjA4VOq5J21wWL2MY58NjcS+KR2QtnkMuV9C4Ah9WkENdwqMut1ruxh2g8txGKxEckb4Ruoo25Qd5kfnf4R4gBlA/aKiZedJuPjbVynLYWSj8XmWAZt/EbYxkmGwkvd8NCPtMQwAzSXy0jLvICc1DQ2bWtwFD2l7HYvCRnEYLaGNe+MFzo5ZnvztAq7LXwkgAnK4Gqdvg6/Lo8jA0VGq8LtRA2TDTFzWktY5wcQKgi4IOo0Xl/Dntg7aUTo5aCaLLmLRQSMNcrwNAatIIHobVove7SwgYSc1/wBU/wChS+cSSys58N8Ox4mLmtJBYASAaCjua0OP2Rh5qh8TDwqAGuHRzbrP/DeTK2f95n0ctpuK3rqq8cnWJzv1OZ47DzbLna6NxLH1La6PA8zHgcRUX9ajkugYLGtmiZIzyyNrQ3oeIPqDUey8X4gQg4X/AHcjSD+9Vp/iCb4eVfhnAk0bK4DoWscR8yfmox+nLqnLzjtme38TW4nwtDawtcaACpzSitBxoB8l0TF7Jw7mkOhjIp/Rbbpa3ssD8RW0xTR/sGfxyrRz7fxtD/m9w/4gdp6NFSoxsmV2nKW4xlmMOC2iGRE0EsbacSyXIS087Pp7ArqG4by+q5v2ex8BxLpcWXCcvsSAImGwFRq0gUArYUHVdD7weSni/KOT8Jdy3l9UlF3g8kl1cx94HIrk/wATv/FcAebsP/1S6i6NwGhPoKVPouT9q8HtLG4yHEt2fKxsG6ysc+Il27k3niIdQVNrVVM/ZfD3deD8tj1suT/D9tdtY8Di/F/9TVb1+1sQcPv+4zbzNl7sHRbzXzZs2XLS/P0XPOzGC2lgsdLi3bOleJjMXMa+LM3eyby3ivQ2vRMveGPtW97fQkbNxdaf6F35LyPg87/N5HOeT6NV/wCIE+JlwzsNhsJJMZ4yHPDo2tiuKh2Zwq6ldLeq8f4bRY7BtGGnwMjWGRz9/niLWVAJD2BxP3aVHMW4p+x+rObcl3XaNrpPLv8ADBpOlHQxRgiugzk/IrsveByKwvxL7GnH5J8O4CeNuUtJyiRlaijvuvaSacLmtLEQbI7T7RYwR4nZmKklb4d5GGhr6fecXHKDzIJHG2iTxU36pNM38U4a7Ww+7s97MPSmubfyNaT8h8l0ztlbAYxvPDzH08jln9gdmppsado7QDWSAAQ4drs26ABDTI4WLgHGwtVxPIC78RMTO6B+Hw+EkxHeIZIy9hGWPMMprxJo4kD0USeLS3zI8H4JNzYbEj/1AP8A8TFY+NERGDi/9y3/AOuVUfhkzG4BzoZcBNkmkaTLVoEVspLgTcUFbXVj4pOxeNphYMFM5kcjX78UyP8AszZo9C8g14tT9U/u1HYJ4/ybhG84Gj8lzbszizsDGzQYxrmRSANEtCW0jLt3IP6TSHEGlSC4VFltvh7PimxR4bEYOWEQx0Eri3K+jtMuodQ146FZDt3j9oQbSjfJlmY17pMLFlzRublc05om+IyNDzV3OhHIL7Sk97Hp9tNoDbogw2z6ysZLvJMTkcIYqMewDM6mY+MmgvpztvjgN1hjHFoyEsZXXwsyt96gLnDvijiowDiMBlGlS6WMV5APYflVbnsZ2vg2jG4sDo3xkB8b6EjNXK4EeZpob20NlMstVyl0wvwLxTWuxLD5iyJw50aXg/Iub811gnPYcOa5VtfsjjNn4w43ZrBLGS47oeZofeSMtNMzCbjLcWta/vf/ANPtCZjmQbMnimc2m8nLWQRk/ezHxOpyDUxupqpym7uMr8JY8u0sTl8kbJW25b5rWfg1dP7Tzg4SfX/RO+lF5nYjsqzZ0Dm5t5PLQyv5lujWk3yirtbkknjRN2qxE+R8EeGlfnYAZAKtFdQKamg/FR7Ylu8lH4bx5mz/ALzPo5bUTgWvZc67NyY3BOdTCyPa+mZpa4G1aEGnqVoP8q4yT/R4FzSeMrw1o9SKAlRhlrHRnN3ap8Rca0RMjreR2anJrLVP9Yj5Fev2RwZw2FY14Ic+shHEZtAfXKGqlsvs0d73jGSCSWxDB5G08vC9OAoAPXVe9tCUhhe1jpC0eVvmceQqpk89qi3x1jn3xHfXFA/7Bn8cq6Puy05iuadocNisXLvO6zMGQMAykmgzGtaa+IrTwdocWWBr8BKX0AJHhaTzu2yrjdZVbKbxjyviPAzNFK0Uc7M12lXBuUtJ50qR7rS9mo3OwkBcb7sa60Hl/wCWi8V/Z/E42VsmLAjjbZsTDV1K1IJ0FeJrX0C2Mb2NAAoABQAaADQK2M+q1XK+JEfdz6JKbfN5pl0UHVVJRcoFci0HRAGH090OJ4IcTr7IsLx9vzQDh9VPIbHohxPlVePUdUA0V4FOqBQHKLlTYbT3Rw+UKDE6+380B4ngo4BdHheKkxHlQV9sTvjgmfGMz2xPcxuuZzWktFBrUgLnPwl2izEd4klkz4x7wXOcRndDlGUMHBgdns2wqPRdEj1HULLbZ+GODnkMsbpcO8kuJhcAMx1IBByk/s0VbLvcWlmtVr8Y6MRuMxaIw05y+mTLS+bNanVc1+E2y8rsVimNc2GV5ZhwQRmia9zg4VvShaATycvWwnw/w7SO8TYnFhpszESudEP+HoehqFt8M0BoAAAFgBYADQAcE1u7puSahsNoeqbE6BDitR0SwupVlQwjxD9cFZcbFDP5T+uKqt1HVA1FdYbDoiVF+p6oDnHiKkw2hR4fyj9cVFitQgPE6e6hhFwjwuvsppvKUBEqjRIK+goUTq8kgoK5FoOiSSCDE6+yLC8fb80kkB4jyqvHqOqSSC6qBTpILcPlCgxOvt/NJJAWF4qTEeVMkgrM1HUK8kkgou1VqDyhJJBFitR0SwupSSQSz+U/riqrdR1SSQXlRfqeqdJBZw/lH64qLFahJJAsLr7KabylMkgqBX0kkCSSSQf/2Q==;" parent="1" vertex="1">
          <mxGeometry x="512" y="489" width="96" height="96" as="geometry" />
        </mxCell>
        <mxCell id="olgELTn0P3DGFXb3GYX9-21" value="WRITE ON DISK" style="text;html=1;align=center;verticalAlign=middle;resizable=0;points=[];autosize=1;strokeColor=none;fillColor=none;" parent="1" vertex="1">
          <mxGeometry x="560" y="420" width="110" height="30" as="geometry" />
        </mxCell>
        <mxCell id="olgELTn0P3DGFXb3GYX9-22" value="&lt;font style=&quot;font-size: 19px;&quot;&gt;UPLOAD DEI PDF&lt;/font&gt;&lt;div&gt;&lt;br&gt;&lt;/div&gt;&lt;div&gt;&lt;font style=&quot;font-size: 16px;&quot;&gt;PER OGNI PDF CARICATO: RIASSUNTO E KEYWORD CLOUD&lt;/font&gt;&lt;/div&gt;" style="rounded=0;whiteSpace=wrap;html=1;" parent="1" vertex="1">
          <mxGeometry x="30" y="-250" width="370" height="210" as="geometry" />
        </mxCell>
        <mxCell id="5DhMMmUm6beUp1lfvrvs-3" value="" style="edgeStyle=orthogonalEdgeStyle;rounded=0;orthogonalLoop=1;jettySize=auto;html=1;" parent="1" source="olgELTn0P3DGFXb3GYX9-7" target="5DhMMmUm6beUp1lfvrvs-2" edge="1">
          <mxGeometry relative="1" as="geometry">
            <mxPoint x="560" y="-40" as="targetPoint" />
            <mxPoint x="560" y="10" as="sourcePoint" />
          </mxGeometry>
        </mxCell>
        <mxCell id="5DhMMmUm6beUp1lfvrvs-2" value="consumer python" style="rounded=0;whiteSpace=wrap;html=1;" parent="1" vertex="1">
          <mxGeometry x="527.71" y="-30" width="60" height="30" as="geometry" />
        </mxCell>
        <mxCell id="5DhMMmUm6beUp1lfvrvs-4" value="opennlp" style="rounded=0;whiteSpace=wrap;html=1;" parent="1" vertex="1">
          <mxGeometry x="707" y="350" width="120" height="60" as="geometry" />
        </mxCell>
        <mxCell id="5DhMMmUm6beUp1lfvrvs-5" style="edgeStyle=orthogonalEdgeStyle;rounded=0;orthogonalLoop=1;jettySize=auto;html=1;entryX=0.443;entryY=-0.055;entryDx=0;entryDy=0;entryPerimeter=0;" parent="1" source="olgELTn0P3DGFXb3GYX9-17" target="5DhMMmUm6beUp1lfvrvs-4" edge="1">
          <mxGeometry relative="1" as="geometry" />
        </mxCell>
        <mxCell id="ZlZe8xuVi5GQK2Vl4bpS-10" style="edgeStyle=orthogonalEdgeStyle;rounded=0;orthogonalLoop=1;jettySize=auto;html=1;exitX=0.99;exitY=0.171;exitDx=0;exitDy=0;exitPerimeter=0;" edge="1" parent="1" source="ZlZe8xuVi5GQK2Vl4bpS-1">
          <mxGeometry relative="1" as="geometry">
            <mxPoint x="664" y="1146" as="targetPoint" />
          </mxGeometry>
        </mxCell>
        <mxCell id="ZlZe8xuVi5GQK2Vl4bpS-1" value="CLIENT" style="rounded=0;whiteSpace=wrap;html=1;" vertex="1" parent="1">
          <mxGeometry x="194" y="1120" width="160" height="150" as="geometry" />
        </mxCell>
        <mxCell id="ZlZe8xuVi5GQK2Vl4bpS-4" style="edgeStyle=orthogonalEdgeStyle;rounded=0;orthogonalLoop=1;jettySize=auto;html=1;entryX=0.5;entryY=0;entryDx=0;entryDy=0;" edge="1" parent="1" source="ZlZe8xuVi5GQK2Vl4bpS-3" target="ZlZe8xuVi5GQK2Vl4bpS-1">
          <mxGeometry relative="1" as="geometry" />
        </mxCell>
        <mxCell id="ZlZe8xuVi5GQK2Vl4bpS-3" value="" style="shape=image;verticalLabelPosition=bottom;labelBackgroundColor=default;verticalAlign=top;aspect=fixed;imageAspect=0;image=https://e7.pngegg.com/pngimages/247/564/png-clipart-computer-icons-user-profile-user-avatar-blue-heroes.png;" vertex="1" parent="1">
          <mxGeometry x="263.25" y="890" width="61.5" height="60" as="geometry" />
        </mxCell>
        <mxCell id="ZlZe8xuVi5GQK2Vl4bpS-5" value="Carica un pdf&lt;div&gt;e sceglie i servizi richiesti:&lt;/div&gt;&lt;div&gt;-SUMMARIZATION&lt;/div&gt;&lt;div&gt;-NLP&lt;/div&gt;" style="text;html=1;align=center;verticalAlign=middle;resizable=0;points=[];autosize=1;strokeColor=none;fillColor=none;" vertex="1" parent="1">
          <mxGeometry x="304" y="970" width="160" height="70" as="geometry" />
        </mxCell>
        <mxCell id="ZlZe8xuVi5GQK2Vl4bpS-14" style="edgeStyle=orthogonalEdgeStyle;rounded=0;orthogonalLoop=1;jettySize=auto;html=1;" edge="1" parent="1" source="ZlZe8xuVi5GQK2Vl4bpS-6">
          <mxGeometry relative="1" as="geometry">
            <mxPoint x="806.7099999999996" y="1460" as="targetPoint" />
          </mxGeometry>
        </mxCell>
        <mxCell id="ZlZe8xuVi5GQK2Vl4bpS-23" style="edgeStyle=orthogonalEdgeStyle;rounded=0;orthogonalLoop=1;jettySize=auto;html=1;" edge="1" parent="1" source="ZlZe8xuVi5GQK2Vl4bpS-8">
          <mxGeometry relative="1" as="geometry">
            <mxPoint x="1264" y="910" as="targetPoint" />
          </mxGeometry>
        </mxCell>
        <mxCell id="ZlZe8xuVi5GQK2Vl4bpS-6" value="" style="shape=image;verticalLabelPosition=bottom;labelBackgroundColor=default;verticalAlign=top;aspect=fixed;imageAspect=0;image=https://www.shutterstock.com/shutterstock/photos/598574900/display_1500/stock-vector-central-server-icon-vector-filled-flat-sign-solid-pictogram-isolated-on-white-symbol-logo-598574900.jpg;" vertex="1" parent="1">
          <mxGeometry x="670.77" y="980" width="271.88" height="290" as="geometry" />
        </mxCell>
        <mxCell id="ZlZe8xuVi5GQK2Vl4bpS-8" value="IL SERVER RISPONDE CON UN REQUEST_ID.&lt;div&gt;&lt;div&gt;ESTRAE TESTO, E IN BASE ALLE OPZIONI INVIA LE RICHIESTE AI MICROSERVIZI&lt;/div&gt;&lt;/div&gt;" style="whiteSpace=wrap;html=1;" vertex="1" parent="1">
          <mxGeometry x="661.71" y="980" width="290" height="60" as="geometry" />
        </mxCell>
        <mxCell id="ZlZe8xuVi5GQK2Vl4bpS-9" value="&lt;div&gt;&lt;font style=&quot;font-size: 15px; background-color: initial;&quot;&gt;&quot;file&quot;: &quot;file_in_base64&lt;/font&gt;&lt;span style=&quot;font-size: 15px; background-color: initial;&quot;&gt;&quot;,&lt;/span&gt;&lt;/div&gt;&lt;div&gt;&lt;font style=&quot;font-size: 15px;&quot;&gt;&amp;nbsp; &quot;userId&quot;: &quot;user123&quot;,&lt;/font&gt;&lt;/div&gt;&lt;div&gt;&lt;font style=&quot;font-size: 15px;&quot;&gt;&amp;nbsp; &quot;fileId&quot;: &quot;hash(file)&quot;,&amp;nbsp;&lt;/font&gt;&lt;/div&gt;&lt;div&gt;&lt;font style=&quot;font-size: 15px;&quot;&gt;&lt;font style=&quot;&quot;&gt;&amp;nbsp; &quot;services&quot;: [&quot;summarization&quot;, &quot;nlp&quot;]&lt;/font&gt;&lt;/font&gt;&lt;/div&gt;&lt;div&gt;&lt;br&gt;&lt;/div&gt;" style="text;html=1;align=center;verticalAlign=middle;resizable=0;points=[];autosize=1;strokeColor=none;fillColor=none;" vertex="1" parent="1">
          <mxGeometry x="384" y="1060" width="260" height="100" as="geometry" />
        </mxCell>
        <mxCell id="ZlZe8xuVi5GQK2Vl4bpS-11" value="" style="endArrow=classic;html=1;rounded=0;" edge="1" parent="1">
          <mxGeometry width="50" height="50" relative="1" as="geometry">
            <mxPoint x="654" y="1230" as="sourcePoint" />
            <mxPoint x="364" y="1230" as="targetPoint" />
          </mxGeometry>
        </mxCell>
        <mxCell id="ZlZe8xuVi5GQK2Vl4bpS-12" value="&lt;div&gt;&lt;span style=&quot;font-size: 15px;&quot;&gt;ok, request_id &quot;1234&quot;&lt;/span&gt;&lt;/div&gt;" style="text;html=1;align=center;verticalAlign=middle;resizable=0;points=[];autosize=1;strokeColor=none;fillColor=none;" vertex="1" parent="1">
          <mxGeometry x="429" y="1200" width="170" height="30" as="geometry" />
        </mxCell>
        <mxCell id="ZlZe8xuVi5GQK2Vl4bpS-13" value="" style="shape=image;verticalLabelPosition=bottom;labelBackgroundColor=default;verticalAlign=top;aspect=fixed;imageAspect=0;image=data:image/jpeg,/9j/4AAQSkZJRgABAQAAAQABAAD/2wCEAAkGBxIQEhUTEhMVFRUVFRgXFxUVGBUYFRUYFhgWFxUXFxUYHSggGBolGxUXITEhJSkrLi4uFx8zODMtNygtLisBCgoKDg0OGxAQGy0lICUrKy0tLS0tLy0tLy8tLy8tNS0rLS01LS0tNS0tLS0uLy0tLS0tLTUtLSs1LS0tLS0tLf/AABEIAOEA4QMBIgACEQEDEQH/xAAbAAABBQEBAAAAAAAAAAAAAAACAAEDBAYHBf/EAEoQAAEDAgMFBgMFBAUKBwEAAAEAAgMRIQQSMQUTQVFxBhQiMmGBB5GxI0KhwfBicrLRUoKSwvEVJTNDY3ODorTSNURkdKOz4Rb/xAAZAQEAAwEBAAAAAAAAAAAAAAAAAQIFAwT/xAAjEQEBAAICAQMFAQAAAAAAAAAAAQIRAxIhBDFRIjNBQmGB/9oADAMBAAIRAxEAPwDuKpS6lLeHmrDGAgEhAsNp7oMVw900xymgsng8Va3QBh/MrMmh6FRzNAFRZRMeSQCUEavBDuhyCrGQ80Cm8xU2F09/5J42AgEhRzHKaC1kBYrgo8P5kcHirW6KVoAqLFBJJoeioudQEnQAk9BcqRrySL8V4Pa7bTI2uhjoZHCjiPuNOtf2iOHrXlWmecwx3Vc85hN1p4nhzQRcEAg+h0VafzH9cFmOw+1y+MwOd4ovL6x1t/ZNuhatdE0EVIqU485njMojDOZ4zKGwuh6psVoOqGY5TayUJza3V1wQeYfrgrb9Co5WgCosVA2Q80AK6zQdE26HIKs6Q11QPP5ipMLoUUTQRU3KCbw6WQFitPdQw+YI4TmN7qSRgAqBQoJCqKMSHmrO6HIIKaSubocgkgHu49VG6UtsOCfvPp+KW5zXrqgdjc9ymf4NOPNLPktrxS8/pT80DMeXWKMwgX5XQ5Ml9Ut9W1NbIB7wfRS7geqDu3r+CXePRAzpC2w4ImNz3PSybdZr1pVLNktrx/XyQJ4yaceaZry6xT1z+lF5faDaYwceaoL3VDG8zzPoP/zioyymM3UZZTGbqj2p24MP9lFeUi54Rg6dXHhy164Umtzck1JOpJ1JPNC6VznFziS5xJJOpJ4olk8vLeS7rK5eW8l2qwYp8Mu8jOVzXGh/IjiDyXUOz+324qOraNc3zs1LSeIPFp4Fcpn8x6qbZuOfh5BJGaOHDg4cWu9CnBz3jv8ADg57x3+OzsGe5/BJ4yXHHmqOxtqsnibJHo7UHVrhYtP6vYq7XPbSi1pZZuNWWWbhmyFxodCjMIF0O7y3rWn+CW/ramqlIe8H0UghBvzQ929fwS39LU0sgZ0hbYaImDPrw5Jt3nvWlUq5La1QO9uS46XQtkLrHinzZ7acUt1lvWtEBbgeqj7wfRF3j0S7t6/ggHvB9EkXdvX8EkAbhylbKAKHgpN4OY+arSNJJoEBPbmNQnj8GvFFCaC9uqGe9KX6IHe8OFBqgERFzwulCKGpt1Uz3gg3GiBt+1RbgoN2eRVoPHMIAbIGih1CB7c9x0QyNJJIClgNBe1+KAGnd1LjQU15U1JXLdu7UOKndJ93ysHJo0+evutd2/2pkibE0jNLWv7g1+ZoOlVz4FZ/rOXd6Rn+r5fPSJFKFEpGFeJ5Ioz+Y9UCOfzHqgUK17fZPbPdZaOP2UhDX/snRr/bj6V9F1SMZbniuILpXYnapxGH3bjV8NGnmWGuQ/gR7eq9/o+X9L/j3ej5f0v+NO+QOFBqVGISLpomkEE2VhzxTUL3veHftURhJvzQZDyKtNeKahADHhoodUMgz6cEMrSTUXRwWrW3VA0bclz0ROkDhQalNOai178FHE0ggkUQOICpd+1EXjmFV3Z5FBY37UlX3Z5FJAKuRaDoioqkupQFidfZFhePt+aPD6e6DFcEB4nyqvHqOqPD6qeTQ9EBqgUqq8AgGHyhQYnX2/mhm1Kr7Txm4w0svFrSR+9SjfxIUW6m0W6m3OO1OO32JeR5WfZt6N1Pu4uK8xRNCkaViZZXK21iZZdrbUjUbDdRsRKBWxHmKjUmIPiP64KLMFCDr2eyO0u74pjiaNed2/lRxsfZ1D814mdMXq2OVxssThlccpY7tP5T+uKqt1HVU+zeN38MMhNS5ni/eaC134gr2HCxW3Lubjbl3NwSov1PVNVXWCw6KUhw/lH64qLFahDP5ipMNoUAYXX2U83lKDE6e6hh8wQAFfTEKjVBfSVCqdAW9dzU7GAgEhN3ceqAylthSyBSuymgsnh8Va3onazPc/gmf4NOPP0QFK0NFRYqJshJAJRNfnsfwRmEC97XQHum8lWMp5ou8H0Undx6oHjYCKnVZn4hTZMNlFs72CnSrj/AFojKW2HBYz4kTVZCP2nmnQAf3iuPqLrjrjz3XHWIajYowiCx2OkBUijRtKJiliPMfb8lGpcT5j7fRRKUkkkkg6H8NcVWCWPjG8OHoJBT6tK1okPNc++Gb/t5GV80df7Lh/Mro5gAvey1vTXfHGr6a744PdN5Ku6Qg6p+8H0UggBve67u5RMBFTcoZjl0smdIW2HDmnaM+vDkgaE5jQ3UkjABUaoXNyXHS6FspdY8UACU81Z3TeSDcD1UfeD6IJ903kkoO8H0SQH3n0TbnNeuqDcOUrZABQ6hAIfktqkfH6U/NNI3MahPH4NeKBBmS+qffVtTWyUjw4UGqBsRBqeCAu7eqfvHoj37VBuXID3Wa9dVhPiSzK+AfsyfVi3rJA0UOoWJ+JYruHDm9v8ACfyXn9V9quHqftVhkYQImrJZCRqNijYiBRKtifMfZRKXE+Y+30USlJJJJINR8OX0xZ/3Tv4mLpu/ramq5p8OYicS+nCI/i5q6OISFqek+20/SfbH3b1T7+lqaI9+1QmIm69L0iMea+lUgcltaomPDRQ6oZBn0QIuz204pCLLfklGMtyifIHCg1KBu8eibu3qgEJU+/agj7t6pKTftTIDzjmFVkaSTYoFci0HRAEBoL26ocRelL9EOJ19kWF4+35oBhFDe3VTvcCDcaIcT5VXj1HVA2Q8j8lcDxzCJUCgklaSTQLOdvMNmwmbjHI13rQgsPt4vwWrh8oVHbGFEzHxHR7C3pWtD7Gh9lTkx7Y2KcmPbGxxtOEnNINHChBoRyIsR80yxGIMKRRhGNEFbEeZRo5z4io6qVjpJqpIN18L4PFNIdPCwH+0Xf3fmugOeKahZzsVgt1gWE6yfaH+sRl/5Q1ew3UdVr8GPXjka/Bj145CyHkfkrbXiguEaov1PVdnUcwqbXUmHtWtuqPD+UfriosVqEBzmote/BRRNIIqEWF19lNN5SgcvHMKnkPI/JMFfQUch5H5J1dSQNlCqSG5S3zuf0U7IwRUi5QNh7j3Q4m1KJpXFpoLBPF4q5r0QDAbqeQWPRBI0NFRYqJshJoTqgDMeaugBBuW8vqoN87n9EDSm5U2HuPdOyMEVOqjlOU0FkHOO3uzNziN4B4JvF6B4oHj6H3KzS63tzZnfIHxmmYeKMng8Vp7G4PoVyeSMtJa4EOaSCDqCLEFZXquLpnv8Vleq4uue/xTNRtUYRBeZ5lefzFAilNz1QqViVzY+AOImZEPvOueTRdx+QKpronw32NlY7EPF5BRg5MBuf6xHyb6rrw8ffOR14ePvnI1mGaAWtFmgUA4AAUAVtwsVHIwNFRqohKTx+i2GuDMeauMFh0Q7lvL6qAykWqgU5uVJhrg1TxsDhU6oZTl0sgLEWHuooTcIojmNDdG9gAqNUEhCp5jzRiV3P6Kfct5fVBVzHmkrW5by+qSAe7jmUBlLbckXeByKExZr80BNZnuUzvBpx5+icPyWN0zvHpan5oE1+exTmEC/K6YMyXKczA2prZAPeDyCPu45lB3c80XeByKATKW25Imtz3PSyYxZr80muyWN+KBOGTTjzWL7b7D3lcTE3xAfaNH3gB5x6ga+nRbRxz6WomEeW5uqcnHM8etU5OOZ49a4miWp7Xdm92TPAPszd7BrH6jmz6dNMvEKkDmQsfPjywy61j58eWGXWocWzK9w5EqJXdsx0lJ4OAP5H8Qpuz+xJMZJkZZou95FmD8zyCm4Xt1i+WF73GfKx2T2A7GS0NREy8jv7gPM/gF1nIIwMotSgHAAaAKDZuDjwkYiY2jR8yeJJ4kqw457C1FqcHDOPH+tLh4px4/0wkzWPH/ABRbgC9TZMI8t+X+Cffg2pquzsHvB5BEIAb3uh7ueYRCcC1NEDGTLYcEmjPrw5JGPNfmk05Nb1QO5uS46XQiXNY8UTnZ7C3FMIst+SAu7jmUHeDyCLvA5Ie7nmgXeDyCSXdzzSQBuXcvop2SACh1CkzDmqkguUByNLjUXCeLw+a1f1wRYc0F0OJvSl0BSODhQXKibGQakaJ4BQ3U8jhQ9EDb5vP6qDcu5fRBlPIq4HDmgjZIAKHUIJRmNRdBKLlTYc0F+aAYvD5rV/XBFI8OFBqmxF6Uuo4BQ3QIRHiLcdNOKx3aLszHG/fwWaD4owLAmwLOQqRbgty9woei83Gwl0bxTVp+dKj8VTPCZTyrlhjlrbIQ7AbjC1hJGW+ZtK0FM2vNbXZmEiw0YjjaGAcBck8yeJ9V53ZdgGY+g+p/l+K9WYVJUYYSfV+U9Z27a8ilGa4uniGXzWT4ewva6WIuBS66JPI8OFBqohERw+iUIoQrLnCmqAd83n9VAYib0+iDKeRVtjhQXQBG8NFDqhlGby3QTCpKkw9ga2QDEMpqbI3yBwoNUsQai3NRRC4QIQu5fRT75vP6oi4c1TynkUFrfN5/VJVcp5FJAyuRaDonyDkFVkcam6AsTr7IsLx9vzRQCovdDiLUpbogPEeVV49R1RwGpvdTvaKG3BAaoFPmPMq4GjkEDQ+UKDE6+3800pIJUuHFRe9+KAcLxUmI8qDEWpS3RBCam6CNmo6hXXCoIQvaKG3BVMx5lBQ2SyjT7fgvZg8oTtYOQVeY0Jook0CxWo6JYXU9EWHuL3vxSxFgKW6KQc/lP64qq3UdUcJqRVUsb2iwkL3RvlaHt1FHGlRUaDkQotk90ybewqL9T1XkO7U4Qf8AmB8pP+1WIu1WBNPtm9SHAe5IUdp8nW/D2cP5R+uKixWoULMS2QZo3hzToWEFvzCN+JZGx0kjgGtuXHgFZA8Lr7KafyleFJ2rwRHhmHs1/wCTVHH2qwdbzj5Sf9qr2nynrfh6oV9U8FjoZwTE9jwNcpBI6jUe6HMeZVkLySo5jzKdAW+dz+imZGCKnUoH4axoaGhoSKgHgSOK4/2s2ptXC4yGCTFbwOkicxsIEDZRvQ0RupUtzEZTUkUPFRbpbHHbr8hLTRqeLxea9Fhtt9ltqY1pe7aO6dctggEscQ5NMrXhzz+0RT0Wf7D9ptpzCTBMcwysr9viCXOhax2R7XNF5XBxAFTa9a0UdvJ18b263IwNFRqo2ykmh4rknavYW1ME04wbSmmykF9DJHkBNARFncxzKkVFBrWi6B2J2ucdg48Q4APu14HlzsNCRyBoDThVJl50XHU20O4by+qg3rlku3HbKTDPiwmFa12KnLQ0uu2MPcGMJHEkk+gAJPIhi+wE0rMztqY3f0rmbIWwh1PuwsIyt9AfdN/B1+W1ZGCKnUoJDlNBZcw7I9r8Zhcb/k/HuMnj3bZHXc13+rJf99j/AA0J8QzCvGml7eHaAhfPhJ442RRl0jDGDIctXOc2R1R5fu5Rob3s7eNnXzpq4vF5ropGBoqNVyLsNi9qY2KdseJyAyjPiZS6SRvgb9lDHWjf6RNhe115238LtLY0scwxkk7XmmZz5SxzhcxyxPe7UVvU6G4Kjv43pPTzrbtLZSbE6qfcN5fVUdkYluIgixDbCSNsgB4ZgHUJ9NFhtn7bn21iZ2RzSYbCQUH2BDJpi4vDDvblgOQuoKGlBxVrVZHQDK4KVjA4VOq5J21wWL2MY58NjcS+KR2QtnkMuV9C4Ah9WkENdwqMut1ruxh2g8txGKxEckb4Ruoo25Qd5kfnf4R4gBlA/aKiZedJuPjbVynLYWSj8XmWAZt/EbYxkmGwkvd8NCPtMQwAzSXy0jLvICc1DQ2bWtwFD2l7HYvCRnEYLaGNe+MFzo5ZnvztAq7LXwkgAnK4Gqdvg6/Lo8jA0VGq8LtRA2TDTFzWktY5wcQKgi4IOo0Xl/Dntg7aUTo5aCaLLmLRQSMNcrwNAatIIHobVove7SwgYSc1/wBU/wChS+cSSys58N8Ox4mLmtJBYASAaCjua0OP2Rh5qh8TDwqAGuHRzbrP/DeTK2f95n0ctpuK3rqq8cnWJzv1OZ47DzbLna6NxLH1La6PA8zHgcRUX9ajkugYLGtmiZIzyyNrQ3oeIPqDUey8X4gQg4X/AHcjSD+9Vp/iCb4eVfhnAk0bK4DoWscR8yfmox+nLqnLzjtme38TW4nwtDawtcaACpzSitBxoB8l0TF7Jw7mkOhjIp/Rbbpa3ssD8RW0xTR/sGfxyrRz7fxtD/m9w/4gdp6NFSoxsmV2nKW4xlmMOC2iGRE0EsbacSyXIS087Pp7ArqG4by+q5v2ex8BxLpcWXCcvsSAImGwFRq0gUArYUHVdD7weSni/KOT8Jdy3l9UlF3g8kl1cx94HIrk/wATv/FcAebsP/1S6i6NwGhPoKVPouT9q8HtLG4yHEt2fKxsG6ysc+Il27k3niIdQVNrVVM/ZfD3deD8tj1suT/D9tdtY8Di/F/9TVb1+1sQcPv+4zbzNl7sHRbzXzZs2XLS/P0XPOzGC2lgsdLi3bOleJjMXMa+LM3eyby3ivQ2vRMveGPtW97fQkbNxdaf6F35LyPg87/N5HOeT6NV/wCIE+JlwzsNhsJJMZ4yHPDo2tiuKh2Zwq6ldLeq8f4bRY7BtGGnwMjWGRz9/niLWVAJD2BxP3aVHMW4p+x+rObcl3XaNrpPLv8ADBpOlHQxRgiugzk/IrsveByKwvxL7GnH5J8O4CeNuUtJyiRlaijvuvaSacLmtLEQbI7T7RYwR4nZmKklb4d5GGhr6fecXHKDzIJHG2iTxU36pNM38U4a7Ww+7s97MPSmubfyNaT8h8l0ztlbAYxvPDzH08jln9gdmppsado7QDWSAAQ4drs26ABDTI4WLgHGwtVxPIC78RMTO6B+Hw+EkxHeIZIy9hGWPMMprxJo4kD0USeLS3zI8H4JNzYbEj/1AP8A8TFY+NERGDi/9y3/AOuVUfhkzG4BzoZcBNkmkaTLVoEVspLgTcUFbXVj4pOxeNphYMFM5kcjX78UyP8AszZo9C8g14tT9U/u1HYJ4/ybhG84Gj8lzbszizsDGzQYxrmRSANEtCW0jLt3IP6TSHEGlSC4VFltvh7PimxR4bEYOWEQx0Eri3K+jtMuodQ146FZDt3j9oQbSjfJlmY17pMLFlzRublc05om+IyNDzV3OhHIL7Sk97Hp9tNoDbogw2z6ysZLvJMTkcIYqMewDM6mY+MmgvpztvjgN1hjHFoyEsZXXwsyt96gLnDvijiowDiMBlGlS6WMV5APYflVbnsZ2vg2jG4sDo3xkB8b6EjNXK4EeZpob20NlMstVyl0wvwLxTWuxLD5iyJw50aXg/Iub811gnPYcOa5VtfsjjNn4w43ZrBLGS47oeZofeSMtNMzCbjLcWta/vf/ANPtCZjmQbMnimc2m8nLWQRk/ezHxOpyDUxupqpym7uMr8JY8u0sTl8kbJW25b5rWfg1dP7Tzg4SfX/RO+lF5nYjsqzZ0Dm5t5PLQyv5lujWk3yirtbkknjRN2qxE+R8EeGlfnYAZAKtFdQKamg/FR7Ylu8lH4bx5mz/ALzPo5bUTgWvZc67NyY3BOdTCyPa+mZpa4G1aEGnqVoP8q4yT/R4FzSeMrw1o9SKAlRhlrHRnN3ap8Rca0RMjreR2anJrLVP9Yj5Fev2RwZw2FY14Ic+shHEZtAfXKGqlsvs0d73jGSCSWxDB5G08vC9OAoAPXVe9tCUhhe1jpC0eVvmceQqpk89qi3x1jn3xHfXFA/7Bn8cq6Puy05iuadocNisXLvO6zMGQMAykmgzGtaa+IrTwdocWWBr8BKX0AJHhaTzu2yrjdZVbKbxjyviPAzNFK0Uc7M12lXBuUtJ50qR7rS9mo3OwkBcb7sa60Hl/wCWi8V/Z/E42VsmLAjjbZsTDV1K1IJ0FeJrX0C2Mb2NAAoABQAaADQK2M+q1XK+JEfdz6JKbfN5pl0UHVVJRcoFci0HRAGH090OJ4IcTr7IsLx9vzQDh9VPIbHohxPlVePUdUA0V4FOqBQHKLlTYbT3Rw+UKDE6+380B4ngo4BdHheKkxHlQV9sTvjgmfGMz2xPcxuuZzWktFBrUgLnPwl2izEd4klkz4x7wXOcRndDlGUMHBgdns2wqPRdEj1HULLbZ+GODnkMsbpcO8kuJhcAMx1IBByk/s0VbLvcWlmtVr8Y6MRuMxaIw05y+mTLS+bNanVc1+E2y8rsVimNc2GV5ZhwQRmia9zg4VvShaATycvWwnw/w7SO8TYnFhpszESudEP+HoehqFt8M0BoAAAFgBYADQAcE1u7puSahsNoeqbE6BDitR0SwupVlQwjxD9cFZcbFDP5T+uKqt1HVA1FdYbDoiVF+p6oDnHiKkw2hR4fyj9cVFitQgPE6e6hhFwjwuvsppvKUBEqjRIK+goUTq8kgoK5FoOiSSCDE6+yLC8fb80kkB4jyqvHqOqSSC6qBTpILcPlCgxOvt/NJJAWF4qTEeVMkgrM1HUK8kkgou1VqDyhJJBFitR0SwupSSQSz+U/riqrdR1SSQXlRfqeqdJBZw/lH64qLFahJJAsLr7KabylMkgqBX0kkCSSSQf/2Q==;" vertex="1" parent="1">
          <mxGeometry x="775" y="1470" width="96" height="96" as="geometry" />
        </mxCell>
        <mxCell id="ZlZe8xuVi5GQK2Vl4bpS-18" value="&lt;br&gt;&lt;div&gt;&lt;br&gt;&lt;/div&gt;" style="text;html=1;align=center;verticalAlign=middle;resizable=0;points=[];autosize=1;strokeColor=none;fillColor=none;" vertex="1" parent="1">
          <mxGeometry x="894" y="1333" width="20" height="40" as="geometry" />
        </mxCell>
        <mxCell id="ZlZe8xuVi5GQK2Vl4bpS-20" value="TEXT EXTRACTOR" style="rounded=0;whiteSpace=wrap;html=1;" vertex="1" parent="1">
          <mxGeometry x="710" y="90" width="120" height="60" as="geometry" />
        </mxCell>
        <mxCell id="ZlZe8xuVi5GQK2Vl4bpS-24" value="Dobbiamo definire come gestire lo stato della richiesta, l&#39;utente quando carica il file ottiene una request_id che potrò monitorare da interfaccia&amp;nbsp;&lt;div&gt;(immagino due pallini verdi, uno per microservizio). Quando il server termina l&#39;elaborazione la riga si colora di verde&lt;/div&gt;" style="text;html=1;align=center;verticalAlign=middle;resizable=0;points=[];autosize=1;strokeColor=none;fillColor=none;" vertex="1" parent="1">
          <mxGeometry x="874" y="860" width="780" height="40" as="geometry" />
        </mxCell>
        <mxCell id="ZlZe8xuVi5GQK2Vl4bpS-25" value="1 FASE UPLOAD&lt;div&gt;&lt;br&gt;&lt;/div&gt;" style="text;html=1;align=center;verticalAlign=middle;resizable=0;points=[];autosize=1;strokeColor=none;fillColor=none;" vertex="1" parent="1">
          <mxGeometry x="763" y="800" width="120" height="40" as="geometry" />
        </mxCell>
      </root>
    </mxGraphModel>
  </diagram>
</mxfile>
